<?xml version="1.0" encoding="UTF-8" ?>
<!DOCTYPE svg PUBLIC "-//W3C//DTD SVG 1.1//EN" "http://www.w3.org/Graphics/SVG/1.1/DTD/svg11.dtd">
<svg width="550pt" height="322pt" viewBox="0 0 550 322" version="1.1" xmlns="http://www.w3.org/2000/svg">
<path fill="#ffffff" d=" M 0.00 0.00 L 550.00 0.00 L 550.00 322.00 L 0.00 322.00 L 0.00 0.00 Z" />
<path fill="#070809" d=" M 260.26 12.13 C 263.70 12.16 267.13 12.16 270.57 12.11 C 270.60 22.25 270.55 32.39 270.59 42.52 C 262.39 42.50 254.18 42.53 245.98 42.51 C 245.93 39.13 245.93 35.75 245.94 32.37 C 250.71 32.33 255.49 32.35 260.27 32.34 C 260.26 25.60 260.26 18.87 260.26 12.13 Z" />
<path fill="#101010" d=" M 275.56 12.09 C 284.86 12.18 294.15 12.18 303.44 12.09 C 303.46 14.90 303.47 17.71 303.48 20.52 C 299.12 20.50 294.76 20.51 290.40 20.51 C 294.82 25.47 299.48 30.22 303.85 35.22 C 304.29 37.62 304.01 40.09 304.00 42.51 C 294.51 42.52 285.02 42.50 275.53 42.53 C 275.53 39.72 275.54 36.91 275.56 34.10 C 280.07 34.18 284.58 34.14 289.10 34.15 C 284.66 29.12 280.04 24.24 275.51 19.29 C 275.53 16.89 275.55 14.49 275.56 12.09 Z" />
<path fill="#dd921f" d=" M 195.07 56.37 C 248.36 56.33 301.64 56.32 354.93 56.37 C 350.16 110.70 345.19 165.02 340.43 219.35 C 319.34 225.31 298.19 231.03 277.09 236.97 C 275.47 237.64 273.79 237.32 272.18 236.82 C 251.33 230.95 230.42 225.27 209.56 219.39 C 204.79 165.05 199.83 110.72 195.07 56.37 Z" />
<path fill="#ecb31e" d=" M 274.85 69.75 C 288.88 69.27 302.93 69.67 316.96 69.54 C 324.68 69.69 332.40 69.23 340.11 69.78 C 336.86 109.75 332.98 149.67 329.54 189.62 C 328.92 195.99 328.51 202.38 327.70 208.73 C 313.21 213.12 298.50 216.74 283.97 221.01 C 281.02 221.90 278.01 222.63 274.97 223.13 C 274.72 216.33 274.77 209.52 274.96 202.71 C 275.45 202.60 276.45 202.38 276.94 202.27 C 289.90 198.67 302.85 195.02 315.84 191.51 C 317.78 170.92 319.48 150.31 321.48 129.73 C 305.93 129.71 290.39 129.72 274.84 129.72 C 275.00 119.54 274.55 109.35 275.03 99.18 C 277.42 98.91 279.81 98.61 282.22 98.47 C 287.91 98.64 293.58 99.20 299.26 99.54 C 299.78 106.44 300.39 113.33 301.15 120.21 C 307.92 120.21 314.68 120.22 321.45 120.20 C 320.08 105.86 318.81 91.51 317.54 77.15 C 303.37 77.18 289.20 77.15 275.03 77.17 C 274.84 74.70 274.79 72.22 274.85 69.75 Z" />
<path fill="#e7e8ea" d=" M 237.52 77.21 C 250.03 77.12 262.53 77.18 275.03 77.17 C 275.25 84.23 275.19 91.30 275.05 98.36 C 268.67 98.35 262.28 98.57 255.90 98.71 C 255.01 109.05 253.99 119.38 253.05 129.72 C 260.32 129.73 267.58 129.73 274.84 129.72 C 274.61 136.45 274.69 143.19 274.78 149.92 C 260.20 149.82 245.63 149.91 231.06 149.89 C 232.98 125.65 235.22 101.42 237.52 77.21 Z" />
<path fill="#ffffff" d=" M 275.03 77.17 C 289.20 77.15 303.37 77.18 317.54 77.15 C 318.81 91.51 320.08 105.86 321.45 120.20 C 314.68 120.22 307.92 120.21 301.15 120.21 C 300.39 113.33 299.78 106.44 299.26 99.54 C 293.58 99.20 287.91 98.64 282.22 98.47 C 279.83 98.41 277.44 98.37 275.05 98.36 C 275.19 91.30 275.25 84.23 275.03 77.17 Z" />
<path fill="#070809" d=" M 48.23 78.24 C 51.67 78.26 55.11 78.26 58.55 78.21 C 58.55 88.37 58.55 98.52 58.55 108.68 C 55.11 108.64 51.67 108.65 48.22 108.66 C 48.24 105.27 48.24 101.88 48.25 98.49 C 45.20 98.48 42.16 98.48 39.11 98.50 C 39.16 101.87 39.15 105.25 39.16 108.63 C 35.67 108.66 32.18 108.65 28.70 108.65 C 28.70 98.51 28.71 88.38 28.70 78.25 C 32.18 78.25 35.67 78.24 39.16 78.28 C 39.15 81.62 39.15 84.97 39.14 88.31 C 42.17 88.32 45.21 88.31 48.24 88.31 C 48.24 84.95 48.24 81.59 48.23 78.24 Z" />
<path fill="#070809" d=" M 62.82 78.23 C 72.26 78.31 81.71 78.16 91.15 78.32 C 91.12 81.68 91.12 85.04 91.14 88.40 C 88.12 88.44 85.10 88.43 82.08 88.46 C 82.19 95.16 82.07 101.86 82.16 108.56 C 78.66 108.68 75.16 108.67 71.66 108.64 C 71.69 101.91 71.64 95.17 71.69 88.43 C 68.74 88.43 65.78 88.43 62.82 88.44 C 62.82 85.04 62.82 81.64 62.82 78.23 Z" />
<path fill="#070809" d=" M 95.35 78.23 C 98.93 78.25 102.50 78.26 106.07 78.23 C 108.20 81.75 110.37 85.23 112.53 88.73 C 114.65 85.22 116.82 81.74 118.94 78.23 C 122.53 78.26 126.11 78.25 129.69 78.24 C 129.66 88.38 129.69 98.53 129.68 108.67 C 126.24 108.64 122.80 108.65 119.37 108.66 C 119.35 103.77 119.45 98.88 119.31 93.99 C 117.06 97.58 114.75 101.13 112.41 104.66 C 110.08 101.11 107.82 97.51 105.43 94.00 C 105.36 98.89 105.42 103.78 105.40 108.67 C 102.06 108.64 98.71 108.64 95.36 108.67 C 95.35 98.52 95.37 88.38 95.35 78.23 Z" />
<path fill="#070809" d=" M 134.67 78.22 C 138.07 78.26 141.46 78.25 144.86 78.26 C 144.80 84.99 144.85 91.73 144.83 98.46 C 149.65 98.50 154.47 98.48 159.30 98.48 C 159.28 101.87 159.28 105.25 159.30 108.64 C 151.09 108.67 142.87 108.63 134.66 108.66 C 134.67 98.52 134.66 88.37 134.67 78.22 Z" />
<path fill="#101010" d=" M 410.23 78.24 C 418.41 78.26 426.59 78.25 434.77 78.24 C 434.76 81.21 434.75 84.17 434.72 87.14 C 430.01 87.12 425.30 87.17 420.59 87.08 C 420.55 91.36 420.55 95.64 420.58 99.92 C 425.29 99.83 430.01 99.87 434.73 99.88 C 434.75 102.85 434.76 105.82 434.76 108.78 C 426.59 108.77 418.42 108.76 410.24 108.79 C 410.24 98.61 410.26 88.42 410.23 78.24 Z" />
<path fill="#101010" d=" M 473.48 78.21 C 482.83 78.28 492.18 78.27 501.54 78.22 C 501.54 81.04 501.54 83.85 501.54 86.67 C 497.15 86.64 492.76 86.64 488.38 86.65 C 492.93 91.72 497.71 96.59 502.19 101.73 C 502.14 104.05 502.14 106.37 502.17 108.68 C 492.61 108.91 483.04 108.68 473.48 108.81 C 473.45 105.94 473.45 103.06 473.51 100.19 C 478.07 100.29 482.64 100.24 487.20 100.25 C 482.54 95.34 478.02 90.29 473.43 85.31 C 473.45 82.94 473.47 80.58 473.48 78.21 Z" />
<path fill="#101010" d=" M 439.91 78.34 C 449.33 78.17 458.75 78.25 468.17 78.29 C 468.16 81.06 468.16 83.84 468.16 86.61 C 463.72 86.67 459.28 86.64 454.85 86.66 C 458.97 91.04 463.03 95.49 467.11 99.92 C 469.66 102.15 468.08 105.87 468.46 108.81 C 458.97 108.71 449.48 108.83 439.99 108.75 C 439.90 105.93 439.90 103.12 439.90 100.31 C 444.19 100.21 448.49 100.27 452.78 100.22 L 453.27 101.50 C 453.32 101.18 453.42 100.56 453.48 100.25 C 449.31 94.93 444.06 90.53 440.02 85.11 C 440.01 82.85 440.06 80.59 439.91 78.34 Z" />
<path fill="#dd921f" d=" M 255.90 98.71 C 262.28 98.57 268.67 98.35 275.05 98.36 C 277.44 98.37 279.83 98.41 282.22 98.47 C 279.81 98.61 277.42 98.91 275.03 99.18 C 274.55 109.35 275.00 119.54 274.84 129.72 C 267.58 129.73 260.32 129.73 253.05 129.72 C 253.99 119.38 255.01 109.05 255.90 98.71 Z" />
<path fill="#dc3a1e" d=" M 13.87 122.49 C 67.18 122.46 120.48 122.48 173.79 122.49 C 169.02 176.82 164.01 231.13 159.31 285.46 C 138.22 291.43 117.07 297.15 95.97 303.08 C 93.76 304.05 91.51 303.03 89.35 302.48 C 69.06 296.78 48.74 291.23 28.44 285.54 C 23.57 231.19 18.76 176.84 13.87 122.49 Z" />
<path fill="#105ea9" d=" M 376.21 122.49 C 429.53 122.54 482.85 122.34 536.16 122.59 C 531.18 176.89 526.44 231.21 521.55 285.52 C 501.26 291.22 480.92 296.75 460.63 302.44 C 458.47 302.96 456.22 304.09 454.01 303.14 C 432.91 297.21 411.76 291.48 390.68 285.50 C 385.97 231.15 380.98 176.83 376.21 122.49 Z" />
<path fill="#ffffff" d=" M 274.84 129.72 C 290.39 129.72 305.93 129.71 321.48 129.73 C 319.48 150.31 317.78 170.92 315.84 191.51 C 302.85 195.02 289.90 198.67 276.94 202.27 C 276.46 202.14 275.50 201.87 275.02 201.74 C 274.33 195.11 274.84 188.43 274.72 181.78 C 274.98 181.71 275.51 181.56 275.77 181.49 C 282.45 179.57 289.24 178.03 295.90 176.02 C 297.36 175.88 296.99 174.01 297.27 173.02 C 297.89 165.30 298.55 157.59 299.30 149.89 C 291.13 149.87 282.95 149.89 274.78 149.92 C 274.69 143.19 274.61 136.45 274.84 129.72 Z" />
<path fill="#eb5022" d=" M 93.98 136.03 C 108.99 135.51 124.01 135.96 139.03 135.81 C 145.69 135.89 152.36 135.61 159.01 136.00 C 158.82 143.02 157.91 150.00 157.35 156.99 C 154.01 194.66 150.56 232.31 147.31 269.98 C 146.81 271.70 147.56 274.63 145.61 275.47 C 128.42 280.25 111.24 285.14 93.99 289.72 C 93.61 282.82 93.86 275.90 93.62 268.99 C 93.84 268.97 94.28 268.95 94.49 268.94 C 107.94 265.32 121.31 261.44 134.77 257.85 C 136.50 242.37 137.40 226.81 139.19 211.34 C 142.00 208.53 140.81 204.62 140.06 201.25 C 140.16 199.57 140.29 197.90 140.34 196.22 L 139.92 195.27 C 124.56 194.76 109.18 195.27 93.82 195.04 C 93.77 188.64 93.99 182.22 93.34 175.85 L 93.85 175.84 C 110.00 175.83 126.14 175.87 142.29 175.82 C 142.67 169.09 143.57 162.40 143.92 155.66 C 127.27 155.68 110.61 155.67 93.96 155.66 C 93.77 149.12 93.55 142.57 93.98 136.03 Z" />
<path fill="#2a98d4" d=" M 456.18 135.83 C 477.97 135.62 499.77 135.77 521.56 135.76 C 517.43 182.21 513.23 228.65 509.13 275.10 C 491.53 280.14 473.85 284.90 456.22 289.83 C 456.18 282.44 456.06 275.05 456.31 267.67 C 456.72 267.58 457.54 267.40 457.96 267.31 C 471.08 263.59 484.26 260.05 497.38 256.33 C 498.56 242.33 499.67 228.31 501.24 214.35 C 503.94 211.53 502.83 207.74 502.07 204.39 C 503.38 187.72 504.90 171.06 506.48 154.40 C 489.75 154.36 473.02 154.41 456.29 154.38 C 456.08 148.20 456.20 142.01 456.18 135.83 Z" />
<path fill="#ecb31e" d=" M 274.78 149.92 C 282.95 149.89 291.13 149.87 299.30 149.89 C 298.55 157.59 297.89 165.30 297.27 173.02 C 296.99 174.01 297.36 175.88 295.90 176.02 C 289.24 178.03 282.45 179.57 275.77 181.49 C 274.94 179.78 274.71 177.90 274.78 176.02 C 274.86 167.32 274.87 158.62 274.78 149.92 Z" />
<path fill="#e7e8ea" d=" M 406.05 154.38 C 422.80 154.38 439.54 154.38 456.29 154.38 C 456.27 161.12 456.26 167.86 456.28 174.60 C 440.09 174.58 423.90 174.65 407.71 174.56 C 407.35 167.82 406.46 161.12 406.05 154.38 Z" />
<path fill="#ffffff" d=" M 456.29 154.38 C 473.02 154.41 489.75 154.36 506.48 154.40 C 504.90 171.06 503.38 187.72 502.07 204.39 C 501.74 207.71 501.50 211.03 501.24 214.35 C 499.67 228.31 498.56 242.33 497.38 256.33 C 484.26 260.05 471.08 263.59 457.96 267.31 C 457.53 267.16 456.69 266.84 456.27 266.68 C 455.96 260.43 456.38 254.17 456.13 247.92 C 455.36 247.41 454.59 246.90 453.82 246.41 C 454.44 246.44 455.67 246.50 456.28 246.54 C 463.70 244.89 470.96 242.59 478.34 240.78 C 479.03 234.43 479.57 228.07 480.04 221.70 C 480.33 219.45 480.89 217.10 480.15 214.88 L 479.68 214.87 C 471.84 214.83 464.01 214.87 456.17 214.85 C 456.33 208.11 456.38 201.36 456.11 194.61 C 464.88 194.62 473.65 194.65 482.42 194.60 C 482.57 193.04 482.73 191.48 482.93 189.93 C 483.48 184.82 483.74 179.68 484.39 174.59 C 475.02 174.59 465.65 174.58 456.28 174.60 C 456.26 167.86 456.27 161.12 456.29 154.38 Z" />
<path fill="#e7e8ea" d=" M 43.51 155.67 C 60.32 155.66 77.14 155.67 93.96 155.66 C 93.55 162.38 93.59 169.12 93.85 175.84 L 93.34 175.85 C 84.10 175.85 74.86 175.84 65.63 175.85 C 66.23 181.11 66.60 186.40 67.14 191.67 C 67.29 193.20 67.43 194.73 67.57 196.25 C 76.30 196.22 85.04 196.25 93.77 196.23 C 93.65 203.00 93.65 209.78 93.76 216.55 C 78.91 216.64 64.05 216.32 49.21 216.70 C 46.83 196.42 45.60 175.99 43.51 155.67 Z" />
<path fill="#ffffff" d=" M 93.96 155.66 C 110.61 155.67 127.27 155.68 143.92 155.66 C 143.57 162.40 142.67 169.09 142.29 175.82 C 126.14 175.87 110.00 175.83 93.85 175.84 C 93.59 169.12 93.55 162.38 93.96 155.66 Z" />
<path fill="#e7e8ea" d=" M 230.78 159.80 C 237.59 159.78 244.40 159.76 251.22 159.82 C 251.60 165.20 252.01 170.59 252.74 175.95 C 260.10 177.74 267.40 179.79 274.72 181.78 C 274.84 188.43 274.33 195.11 275.02 201.74 C 275.50 201.87 276.46 202.14 276.94 202.27 C 276.45 202.38 275.45 202.60 274.96 202.71 C 261.07 199.36 247.38 195.09 233.56 191.44 C 232.82 180.88 231.78 170.34 230.78 159.80 Z" />
<path fill="#2a98d4" d=" M 456.28 174.60 C 465.65 174.58 475.02 174.59 484.39 174.59 C 483.74 179.68 483.48 184.82 482.93 189.93 C 482.65 191.63 482.29 194.41 480.04 194.33 C 472.37 194.34 464.67 194.68 457.02 194.13 L 456.38 193.70 C 455.90 187.35 456.23 180.96 456.28 174.60 Z" />
<path fill="#dc3a1e" d=" M 65.63 175.85 C 74.86 175.84 84.10 175.85 93.34 175.85 C 93.99 182.22 93.77 188.64 93.82 195.04 C 85.70 194.95 77.57 195.19 69.45 194.97 C 69.17 193.89 68.89 192.82 68.61 191.75 C 68.24 191.73 67.51 191.69 67.14 191.67 C 66.60 186.40 66.23 181.11 65.63 175.85 Z" />
<path fill="#e43c05" d=" M 67.14 191.67 C 67.51 191.69 68.24 191.73 68.61 191.75 C 68.89 192.82 69.17 193.89 69.45 194.97 C 77.57 195.19 85.70 194.95 93.82 195.04 C 109.18 195.27 124.56 194.76 139.92 195.27 L 140.34 196.22 C 124.81 196.24 109.29 196.22 93.77 196.23 C 85.04 196.25 76.30 196.22 67.57 196.25 C 67.43 194.73 67.29 193.20 67.14 191.67 Z" />
<path fill="#e7e8ea" d=" M 432.17 194.67 C 440.15 194.61 448.13 194.72 456.11 194.61 C 456.38 201.36 456.33 208.11 456.17 214.85 C 448.75 214.84 441.34 214.90 433.93 214.81 C 433.49 208.09 432.80 201.38 432.17 194.67 Z" />
<path fill="#ffffff" d=" M 93.77 196.23 C 109.29 196.22 124.81 196.24 140.34 196.22 C 140.29 197.90 140.16 199.57 140.06 201.25 C 139.69 204.61 139.47 207.97 139.19 211.34 C 137.40 226.81 136.50 242.37 134.77 257.85 C 121.31 261.44 107.94 265.32 94.49 268.94 C 93.04 262.07 93.85 255.03 93.80 248.08 L 94.29 247.95 C 101.53 245.95 108.80 244.04 116.06 242.08 C 116.32 237.95 116.73 233.83 117.01 229.70 C 117.30 226.67 117.50 223.64 117.74 220.62 C 117.89 219.68 118.03 218.75 118.18 217.83 L 118.37 216.54 C 110.17 216.56 101.97 216.56 93.76 216.55 C 93.65 209.78 93.65 203.00 93.77 196.23 Z" />
<path fill="#ea4100" d=" M 140.06 201.25 C 140.81 204.62 142.00 208.53 139.19 211.34 C 139.47 207.97 139.69 204.61 140.06 201.25 Z" />
<path fill="#0392d2" d=" M 502.07 204.39 C 502.83 207.74 503.94 211.53 501.24 214.35 C 501.50 211.03 501.74 207.71 502.07 204.39 Z" />
<path fill="#2a98d4" d=" M 456.17 214.85 C 464.01 214.87 471.84 214.83 479.68 214.87 C 478.37 217.04 479.17 219.54 480.04 221.70 C 479.57 228.07 479.03 234.43 478.34 240.78 C 470.96 242.59 463.70 244.89 456.28 246.54 C 456.05 235.98 456.24 225.41 456.17 214.85 Z" />
<path fill="#0292d2" d=" M 479.68 214.87 L 480.15 214.88 C 480.89 217.10 480.33 219.45 480.04 221.70 C 479.17 219.54 478.37 217.04 479.68 214.87 Z" />
<path fill="#e02900" d=" M 49.21 216.70 C 64.05 216.32 78.91 216.64 93.76 216.55 C 101.97 216.56 110.17 216.56 118.37 216.54 L 118.18 217.83 C 109.92 217.67 101.66 217.57 93.40 217.87 C 78.43 217.98 63.43 218.27 48.47 217.74 L 49.21 216.70 Z" />
<path fill="#eb5022" d=" M 93.40 217.87 C 101.66 217.57 109.92 217.67 118.18 217.83 C 118.03 218.75 117.89 219.68 117.74 220.62 C 115.23 223.20 116.17 226.63 117.01 229.70 C 116.73 233.83 116.32 237.95 116.06 242.08 C 108.80 244.04 101.53 245.95 94.29 247.95 C 93.02 237.97 94.42 227.88 93.40 217.87 Z" />
<path fill="#ea3e01" d=" M 117.01 229.70 C 116.17 226.63 115.23 223.20 117.74 220.62 C 117.50 223.64 117.30 226.67 117.01 229.70 Z" />
<path fill="#e7e8ea" d=" M 412.25 224.72 C 419.01 224.70 425.77 224.72 432.53 224.70 C 433.34 230.00 433.11 235.53 434.32 240.70 C 440.70 242.97 447.60 243.78 453.82 246.41 C 454.59 246.90 455.36 247.41 456.13 247.92 C 456.38 254.17 455.96 260.43 456.27 266.68 C 456.69 266.84 457.53 267.16 457.96 267.31 C 457.54 267.40 456.72 267.58 456.31 267.67 C 442.53 264.24 428.92 260.06 415.18 256.45 C 414.05 245.88 413.29 235.29 412.25 224.72 Z" />
<path fill="#e7e8ea" d=" M 49.82 226.22 C 56.63 226.25 63.44 226.19 70.26 226.26 C 70.57 231.57 71.10 236.86 71.67 242.15 C 79.05 244.11 86.43 246.08 93.80 248.08 C 93.85 255.03 93.04 262.07 94.49 268.94 C 94.28 268.95 93.84 268.97 93.62 268.99 C 79.85 265.44 66.14 261.58 52.50 257.58 C 51.94 247.11 50.70 236.67 49.82 226.22 Z" />
</svg>
