<?xml version="1.0" encoding="UTF-8" ?>
<!DOCTYPE svg PUBLIC "-//W3C//DTD SVG 1.1//EN" "http://www.w3.org/Graphics/SVG/1.1/DTD/svg11.dtd">
<svg width="600pt" height="500pt" viewBox="0 0 600 500" version="1.1" xmlns="http://www.w3.org/2000/svg">
<path fill="#ffffff" d=" M 0.00 0.00 L 600.00 0.00 L 600.00 500.00 L 0.00 500.00 L 0.00 0.00 Z" />
<path fill="#0b0b0b" d=" M 298.20 103.78 C 298.79 102.49 299.41 101.21 300.02 99.93 C 300.60 101.21 301.18 102.48 301.76 103.77 C 303.24 104.06 304.73 104.33 306.22 104.60 C 305.20 105.48 304.18 106.35 303.16 107.22 C 303.35 108.71 303.56 110.20 303.80 111.68 C 301.42 109.73 298.57 109.97 296.23 111.73 C 296.44 110.21 296.63 108.68 296.81 107.15 C 295.78 106.30 294.77 105.46 293.76 104.60 C 295.24 104.33 296.72 104.07 298.20 103.78 Z" />
<path fill="#0b0b0b" d=" M 274.58 101.97 C 275.38 103.24 276.19 104.50 276.99 105.77 C 278.50 105.70 280.01 105.62 281.52 105.53 C 280.63 106.71 279.76 107.90 278.89 109.09 C 279.39 110.36 279.88 111.62 280.42 112.87 C 278.97 112.58 277.55 112.18 276.07 112.11 C 274.85 112.81 273.77 113.72 272.68 114.60 C 272.73 113.09 272.76 111.59 272.80 110.09 C 271.60 109.28 270.41 108.47 269.21 107.68 C 270.61 107.27 272.01 106.84 273.42 106.43 C 273.80 104.94 274.19 103.46 274.58 101.97 Z" />
<path fill="#0b0b0b" d=" M 322.42 105.68 C 323.76 104.86 324.50 103.35 325.50 102.18 C 325.85 103.59 326.22 105.00 326.59 106.41 C 327.98 106.84 329.37 107.29 330.77 107.72 C 329.61 108.45 328.44 109.20 327.28 109.94 C 327.28 111.35 327.29 112.76 327.30 114.17 C 325.10 112.29 322.47 111.74 319.74 112.79 C 320.18 111.57 320.62 110.34 321.05 109.11 C 320.28 107.97 319.52 106.84 318.76 105.71 C 319.67 105.70 321.50 105.68 322.42 105.68 Z" />
<path fill="#0b0b0b" d=" M 249.93 108.87 C 250.93 109.84 251.93 110.81 252.94 111.78 C 254.41 111.54 255.87 111.28 257.34 111.03 C 256.65 112.31 255.99 113.60 255.33 114.90 C 256.13 116.12 256.93 117.33 257.74 118.55 C 256.18 118.37 254.62 118.19 253.06 118.02 C 252.14 119.14 251.22 120.26 250.33 121.39 C 250.08 119.85 249.83 118.33 249.57 116.80 C 248.28 116.26 247.00 115.72 245.73 115.18 C 246.97 114.50 248.22 113.82 249.48 113.14 C 249.61 111.72 249.76 110.29 249.93 108.87 Z" />
<path fill="#0b0b0b" d=" M 342.74 111.15 C 345.62 112.08 348.23 111.52 350.05 109.01 C 350.22 110.41 350.39 111.80 350.57 113.20 C 351.79 113.84 353.01 114.48 354.25 115.12 C 352.98 115.69 351.73 116.26 350.47 116.82 C 350.12 118.34 349.78 119.85 349.45 121.38 C 348.61 120.24 347.75 119.11 346.92 117.98 C 345.35 118.18 343.79 118.40 342.23 118.61 C 343.06 117.40 343.87 116.18 344.68 114.95 C 344.04 113.68 343.40 112.41 342.74 111.15 Z" />
<path fill="#0b0b0b" d=" M 226.80 119.20 C 227.02 119.46 227.45 119.97 227.67 120.23 C 228.57 120.82 229.48 121.43 230.38 122.04 C 231.76 121.47 233.14 120.90 234.50 120.30 C 234.03 121.80 233.58 123.31 233.16 124.83 C 234.14 125.78 235.12 126.74 236.09 127.71 C 234.54 127.88 232.98 128.05 231.43 128.22 C 230.70 129.44 229.96 130.65 229.22 131.86 C 228.82 130.46 228.41 129.05 227.99 127.65 C 226.56 127.27 225.15 126.87 223.73 126.46 C 224.79 125.69 225.86 124.92 226.93 124.14 C 226.87 122.49 226.84 120.85 226.80 119.20 Z" />
<path fill="#0b0b0b" d=" M 369.71 122.08 C 370.86 121.18 372.03 120.29 373.18 119.38 C 373.14 120.88 373.05 122.39 373.19 123.89 C 374.05 124.96 375.11 125.86 376.09 126.84 C 374.75 127.08 373.41 127.31 372.08 127.55 C 371.60 128.98 371.14 130.41 370.68 131.85 C 369.98 130.64 369.28 129.42 368.58 128.21 C 367.07 128.07 365.56 127.94 364.05 127.82 C 364.96 126.73 365.92 125.67 366.73 124.49 C 366.38 123.07 365.97 121.67 365.52 120.29 C 366.90 120.91 368.30 121.50 369.71 122.08 Z" />
<path fill="#0b0b0b" d=" M 208.02 140.69 C 206.62 138.11 206.27 133.58 209.24 132.16 C 210.61 134.52 210.50 137.23 209.99 139.82 C 210.56 139.63 211.69 139.23 212.25 139.03 C 211.77 139.51 210.79 140.45 210.30 140.93 C 213.41 140.24 216.41 141.15 218.98 142.89 C 216.13 144.05 212.94 145.10 210.22 142.90 C 211.55 142.85 214.20 142.73 215.53 142.67 C 213.68 142.13 211.80 141.74 209.93 141.32 C 208.52 142.47 207.21 143.75 205.66 144.69 L 204.48 145.29 C 206.02 143.42 207.93 141.90 209.79 140.37 C 209.27 138.55 208.80 136.72 208.30 134.91 C 208.23 136.83 208.13 138.76 208.02 140.69 Z" />
<path fill="#0b0b0b" d=" M 390.95 131.55 C 392.95 134.09 393.32 137.34 392.61 140.45 C 392.11 138.82 391.69 137.16 391.28 135.51 C 390.95 137.17 390.64 138.83 390.28 140.49 C 394.51 144.03 398.50 147.85 402.23 151.91 C 402.97 152.90 403.91 153.70 404.69 154.65 C 406.10 156.21 407.45 157.83 409.03 159.23 C 408.76 159.62 408.50 160.00 408.24 160.38 C 406.93 158.39 405.39 156.56 403.92 154.70 C 401.10 154.77 398.26 154.68 395.51 155.37 C 398.28 156.08 401.11 156.43 403.96 156.68 C 399.24 158.96 393.81 158.19 389.82 154.84 C 393.18 152.89 397.02 152.28 400.85 152.86 C 401.98 150.90 398.22 149.48 397.32 147.87 C 397.04 147.94 396.46 148.09 396.18 148.16 C 395.95 148.48 395.51 149.11 395.29 149.43 C 391.74 151.86 387.38 150.28 383.97 148.42 C 386.95 146.36 390.60 145.32 394.20 146.23 L 395.51 146.31 C 393.81 144.51 391.94 142.91 390.08 141.29 C 388.18 141.73 386.27 142.13 384.42 142.73 C 385.85 142.75 388.71 142.79 390.14 142.81 C 387.28 144.98 383.95 144.27 381.05 142.77 C 383.58 141.13 386.49 140.29 389.51 140.92 C 389.03 140.36 388.07 139.25 387.59 138.69 C 388.19 139.03 389.40 139.69 390.01 140.02 C 389.33 137.14 389.55 134.19 390.95 131.55 Z" />
<path fill="#adadad" d=" M 213.27 135.25 C 214.90 133.22 217.60 132.78 220.06 132.99 C 218.65 135.67 216.84 139.70 213.11 139.01 C 210.70 138.47 212.45 136.43 213.27 135.25 Z" />
<path fill="#0b0b0b" d=" M 380.37 133.05 C 383.66 133.29 386.61 134.97 388.22 137.92 C 386.67 137.11 385.11 136.33 383.55 135.57 C 384.78 136.86 386.11 138.05 387.38 139.30 C 383.95 138.72 381.62 136.13 380.37 133.05 Z" />
<path fill="#0b0b0b" d=" M 396.94 145.54 C 394.97 141.67 396.00 137.44 398.25 133.96 C 400.39 137.36 401.54 141.56 399.70 145.38 C 399.01 145.42 397.63 145.50 396.94 145.54 Z" />
<path fill="#0b0b0b" d=" M 201.18 134.50 C 204.69 136.79 204.95 142.43 202.54 145.66 C 203.69 145.84 204.72 145.46 205.66 144.69 L 203.99 147.01 C 207.92 145.31 212.64 145.54 215.85 148.62 C 212.10 150.74 207.68 151.25 203.65 149.63 C 205.98 149.15 208.32 148.75 210.64 148.23 C 208.20 147.69 205.71 147.52 203.23 147.36 C 201.03 149.66 198.75 151.88 196.55 154.19 C 200.97 151.89 205.97 152.36 210.15 154.85 C 208.21 156.00 206.34 157.42 204.08 157.85 C 201.31 158.63 198.57 157.44 195.95 156.67 C 198.80 156.44 201.65 156.10 204.43 155.37 C 201.70 154.75 198.89 154.65 196.11 154.53 C 191.47 160.38 186.76 166.20 182.72 172.50 C 187.04 168.16 193.36 167.44 198.89 169.46 C 198.77 169.87 198.51 170.68 198.38 171.08 C 195.54 172.94 192.64 175.50 189.03 175.34 C 187.11 175.41 185.29 174.72 183.47 174.24 C 186.86 173.73 190.19 172.79 193.23 171.18 C 189.64 171.04 186.12 171.79 182.66 172.66 C 181.39 174.79 180.14 176.94 178.73 178.97 C 179.07 179.52 179.42 180.06 179.78 180.61 C 183.79 176.64 189.88 177.03 194.89 178.48 C 192.51 180.96 190.07 183.61 186.77 184.82 C 183.82 186.13 180.53 185.41 177.49 184.89 C 180.62 184.16 183.66 183.09 186.50 181.57 C 186.59 181.32 186.76 180.80 186.84 180.55 C 183.62 181.07 180.51 182.19 177.25 182.45 C 175.90 185.45 173.26 188.44 173.23 191.71 C 174.92 191.32 176.08 189.55 177.71 188.86 C 181.13 186.99 185.17 187.23 188.89 187.81 C 187.62 190.77 185.10 193.03 182.39 194.66 C 179.46 196.42 175.91 195.87 172.67 195.67 C 176.08 194.59 179.36 193.12 182.23 190.97 C 178.46 190.81 175.43 193.24 171.90 193.86 C 168.88 200.41 166.82 207.38 165.17 214.39 C 164.59 215.55 165.31 216.70 165.62 217.81 C 168.16 211.75 175.06 210.00 181.01 209.82 C 178.96 216.43 173.04 221.76 165.84 221.53 C 168.91 219.41 172.03 217.29 174.39 214.36 C 171.06 215.50 167.76 217.02 165.33 219.65 L 165.07 216.80 C 162.91 221.53 162.98 227.02 162.19 232.12 C 161.81 237.10 161.18 242.10 161.67 247.11 C 163.22 244.52 164.22 241.48 166.58 239.47 C 169.38 237.08 172.95 235.85 176.50 235.08 C 175.48 239.04 174.28 243.28 171.15 246.14 C 168.95 248.40 165.82 249.21 162.91 250.08 C 166.06 247.52 168.82 244.48 170.76 240.90 C 167.23 242.93 164.28 245.73 161.42 248.60 C 161.31 253.33 162.64 258.31 161.87 262.88 C 161.57 263.01 160.97 263.27 160.67 263.40 C 161.39 258.37 160.29 253.35 160.49 248.31 C 160.04 248.09 159.14 247.63 158.69 247.41 C 156.64 244.67 153.74 242.78 150.80 241.11 C 152.99 244.61 155.66 247.83 159.11 250.15 C 155.89 249.38 152.47 248.46 150.12 245.96 C 147.21 243.16 146.01 239.17 145.05 235.37 C 150.97 236.58 157.43 239.59 159.17 245.94 C 159.61 245.16 160.05 244.38 160.48 243.60 C 160.45 239.75 161.01 235.92 160.97 232.08 C 161.54 227.52 163.30 222.96 162.57 218.33 C 160.12 215.87 158.28 212.83 155.48 210.73 C 156.72 214.34 158.71 217.63 161.09 220.61 C 158.40 219.25 155.51 217.83 153.88 215.16 C 151.51 211.96 151.25 207.86 151.04 204.03 C 157.34 206.13 162.14 211.50 162.93 218.18 C 165.05 213.97 165.27 209.07 166.97 204.68 C 168.30 201.01 169.44 197.27 170.99 193.68 C 169.46 190.55 168.05 187.33 166.00 184.49 C 165.97 188.01 167.37 191.21 169.00 194.23 C 162.91 190.81 161.09 183.40 162.62 176.94 C 166.20 179.70 170.32 183.06 170.61 187.95 C 171.12 188.99 170.29 191.40 171.70 191.80 C 173.30 188.90 174.32 185.69 175.95 182.78 C 174.84 179.48 173.79 176.15 172.20 173.03 C 171.84 176.43 172.56 179.77 173.77 182.95 C 168.08 178.80 167.51 171.42 169.04 165.14 C 173.83 168.85 177.94 174.68 175.99 181.05 C 176.27 181.14 176.82 181.31 177.10 181.40 C 177.46 178.05 181.56 175.58 180.80 172.27 C 175.15 168.91 174.83 161.28 177.30 155.80 C 181.53 159.66 184.13 165.38 182.12 171.05 C 184.99 169.05 186.33 165.10 188.81 162.49 C 187.91 159.54 187.32 156.51 186.32 153.59 C 186.09 156.72 186.23 159.86 186.68 162.96 C 185.35 160.76 183.72 158.58 183.45 155.95 C 183.09 153.05 184.29 150.29 185.16 147.59 C 189.06 151.39 190.71 156.98 188.93 162.28 C 191.49 159.10 193.99 155.86 196.73 152.82 C 198.46 151.06 200.12 149.23 201.89 147.50 C 198.71 143.78 198.68 138.60 201.18 134.50 Z" />
<path fill="#0b0b0b" d=" M 193.58 140.08 C 196.19 144.09 197.84 149.01 195.60 153.61 C 195.07 152.19 193.99 149.35 193.46 147.93 C 193.45 150.11 193.50 152.29 193.60 154.47 C 192.46 152.11 190.96 149.70 191.25 146.96 C 191.34 144.48 192.58 142.28 193.58 140.08 Z" />
<path fill="#ffffff" d=" M 201.51 140.40 C 202.75 141.19 202.57 144.01 201.92 145.36 C 200.28 144.88 201.30 141.78 201.51 140.40 Z" />
<path fill="#ffffff" d=" M 398.51 144.93 C 396.85 144.75 397.26 140.92 398.48 140.44 C 398.94 141.81 399.27 143.60 398.51 144.93 Z" />
<path fill="#0b0b0b" d=" M 403.70 145.05 C 404.55 143.36 405.55 141.75 406.50 140.12 C 408.41 143.57 408.95 147.44 408.73 151.35 C 408.31 151.18 407.46 150.85 407.04 150.69 C 406.71 149.03 406.39 147.38 406.06 145.73 C 405.38 148.26 404.82 150.81 404.24 153.36 C 403.72 150.63 403.18 147.83 403.70 145.05 Z" />
<path fill="#adadad" d=" M 402.23 151.91 C 402.85 149.66 403.27 147.35 403.70 145.05 C 403.18 147.83 403.72 150.63 404.24 153.36 C 404.82 150.81 405.38 148.26 406.06 145.73 C 406.39 147.38 406.71 149.03 407.04 150.69 C 406.23 152.00 405.48 153.34 404.69 154.65 C 403.91 153.70 402.97 152.90 402.23 151.91 Z" />
<path fill="#ffffff" d=" M 390.42 148.48 C 390.91 147.31 394.71 146.85 394.88 148.50 C 393.57 149.32 391.76 148.99 390.42 148.48 Z" />
<path fill="#0b0b0b" d=" M 411.92 161.71 C 408.47 157.21 411.23 151.17 414.78 147.66 C 417.32 152.64 417.00 158.63 413.38 163.01 C 413.66 159.90 414.18 156.74 413.47 153.65 C 412.65 156.27 412.22 158.98 411.92 161.71 Z" />
<path fill="#0b0b0b" d=" M 417.41 169.94 C 415.95 164.46 418.92 159.45 422.70 155.79 C 423.40 158.52 424.45 161.27 424.18 164.14 C 423.75 166.45 422.63 168.56 421.80 170.75 C 420.20 168.52 421.03 165.75 420.90 163.23 C 419.58 165.55 418.91 168.14 418.21 170.69 C 418.90 170.86 420.28 171.22 420.98 171.40 C 419.71 171.53 418.43 171.65 417.17 171.71 C 422.25 178.14 425.52 185.83 428.71 193.33 C 429.24 190.18 428.94 186.75 430.54 183.88 C 432.11 181.04 434.72 178.99 437.26 177.07 C 438.82 183.22 437.19 190.32 431.56 193.88 C 432.77 190.65 433.81 187.35 434.36 183.94 C 432.22 187.01 430.22 190.28 429.14 193.89 C 432.43 201.95 434.62 210.37 436.88 218.75 C 437.80 215.59 438.31 212.08 440.61 209.55 C 442.80 206.90 445.96 205.42 448.98 203.95 C 448.73 207.75 448.43 211.81 446.16 215.03 C 444.44 217.73 441.53 219.25 438.82 220.73 C 441.16 217.75 443.23 214.51 444.28 210.82 C 441.50 213.08 439.53 216.09 437.25 218.81 C 436.90 223.70 438.67 228.43 438.85 233.30 C 439.10 236.75 439.46 240.20 439.52 243.66 C 439.95 244.41 440.39 245.16 440.84 245.91 C 442.50 239.52 449.04 236.61 454.92 235.36 C 453.90 239.34 452.60 243.56 449.42 246.36 C 447.06 248.57 443.86 249.44 440.80 250.17 C 444.24 247.80 446.97 244.60 449.17 241.08 C 446.24 242.77 443.31 244.64 441.28 247.42 C 440.84 247.65 439.96 248.10 439.52 248.33 C 439.51 253.14 438.98 257.92 438.79 262.72 C 440.48 259.92 441.84 256.69 444.68 254.83 C 447.69 252.64 451.44 252.07 455.03 251.51 C 453.92 256.14 451.22 260.63 446.92 262.91 C 444.67 263.97 442.18 264.33 439.78 264.89 C 443.09 262.73 446.29 260.26 448.44 256.87 C 444.76 258.26 441.74 260.80 438.62 263.09 C 438.03 266.89 437.60 270.71 436.79 274.48 C 437.20 274.38 438.03 274.19 438.45 274.09 C 441.74 268.88 448.17 267.61 453.90 267.59 C 451.93 271.64 449.37 275.87 445.06 277.74 C 442.78 278.93 440.15 278.73 437.68 279.01 C 441.20 277.19 444.41 274.84 447.11 271.93 C 444.19 272.95 441.35 274.19 438.72 275.83 C 437.62 275.28 436.51 274.79 435.44 274.23 C 436.62 270.35 436.90 266.27 437.62 262.29 L 436.87 262.45 C 434.78 259.31 432.08 256.66 429.14 254.32 C 430.73 258.12 433.08 261.54 436.06 264.39 C 432.85 263.07 429.51 261.56 427.48 258.61 C 425.12 255.56 424.54 251.61 424.07 247.90 C 427.50 249.20 431.09 250.65 433.55 253.51 C 435.70 255.91 436.32 259.18 437.71 262.01 C 438.04 257.57 438.24 253.13 438.60 248.70 C 435.73 245.76 432.70 242.97 429.19 240.80 C 431.13 244.46 433.82 247.66 437.17 250.10 C 434.21 249.30 431.09 248.41 428.87 246.17 C 425.65 243.33 424.51 239.04 423.41 235.08 C 429.90 236.09 436.35 240.13 437.78 246.94 L 438.53 246.82 C 438.54 237.44 437.58 228.06 435.73 218.86 C 435.36 218.98 434.61 219.24 434.24 219.36 C 432.00 216.83 428.80 215.55 425.72 214.38 C 428.11 217.60 431.40 219.97 435.03 221.60 C 431.66 221.22 428.05 220.98 425.24 218.86 C 422.18 216.77 420.45 213.33 418.98 210.04 C 424.78 209.73 430.81 211.77 434.01 216.87 C 434.22 216.86 434.64 216.84 434.85 216.82 C 435.21 215.48 434.67 214.15 434.41 212.84 C 431.93 202.48 427.81 192.62 423.35 182.98 C 419.64 182.69 416.33 180.68 412.56 180.70 C 415.42 182.85 418.80 184.07 422.25 184.87 C 419.30 185.48 416.10 186.07 413.23 184.84 C 409.90 183.63 407.45 180.97 405.07 178.47 C 410.34 176.88 416.90 176.71 420.76 181.29 C 421.32 181.52 421.92 181.64 422.55 181.65 C 420.62 178.71 419.35 175.26 416.94 172.69 C 413.69 171.49 410.19 171.09 406.74 171.32 C 409.79 172.77 413.06 173.65 416.37 174.31 C 413.89 175.05 411.26 175.72 408.68 175.13 C 405.43 174.16 402.84 171.90 400.25 169.81 C 405.46 167.71 411.56 167.77 416.11 171.43 C 414.74 168.48 412.74 165.92 410.89 163.27 L 409.05 163.06 C 409.74 162.73 411.04 161.52 411.65 162.57 C 413.38 165.07 414.64 168.53 417.41 169.94 Z" />
<path fill="#0b0b0b" d=" M 395.32 161.90 C 399.54 159.98 404.71 159.18 408.77 161.95 C 408.78 162.15 408.79 162.56 408.79 162.77 C 406.47 162.87 404.16 162.68 401.85 162.93 C 404.37 163.87 406.99 164.54 409.57 165.33 C 404.51 167.45 399.05 165.61 395.32 161.90 Z" />
<path fill="#0b0b0b" d=" M 189.93 162.70 C 194.02 159.71 199.46 159.35 203.97 161.65 C 201.47 166.23 194.90 167.29 190.36 165.15 C 193.04 164.54 195.72 163.90 198.29 162.89 C 195.50 162.70 192.71 162.77 189.93 162.70 Z" />
<path fill="#ffffff" d=" M 178.85 162.81 C 179.57 165.07 183.09 169.32 180.29 170.88 C 178.86 168.46 178.80 165.53 178.85 162.81 Z" />
<path fill="#0b0b0b" d=" M 423.78 174.89 C 424.75 170.84 427.84 167.89 430.79 165.17 C 431.33 168.39 432.21 171.72 431.34 174.98 C 430.77 178.24 428.36 180.67 426.12 182.91 C 427.26 179.62 428.22 176.24 428.35 172.74 C 426.23 175.67 425.21 179.16 424.11 182.56 C 423.76 180.02 423.42 177.44 423.78 174.89 Z" />
<path fill="#0b0b0b" d=" M 410.77 187.83 C 417.09 186.39 424.32 188.06 427.87 193.95 C 424.63 192.49 421.31 191.20 417.74 190.96 C 420.63 193.16 423.97 194.61 427.39 195.77 C 424.29 195.78 420.96 196.42 418.09 194.93 C 414.96 193.41 412.66 190.67 410.77 187.83 Z" />
<path fill="#0b0b0b" d=" M 156.50 188.88 C 162.36 191.85 167.51 197.77 166.25 204.79 C 164.51 201.66 162.79 198.46 160.20 195.94 C 161.16 199.60 162.60 203.13 164.73 206.28 C 158.13 203.25 155.53 195.72 156.50 188.88 Z" />
<path fill="#0b0b0b" d=" M 433.66 204.91 C 432.39 197.86 437.49 191.83 443.45 188.92 C 444.26 195.39 442.24 202.93 435.81 205.83 C 437.39 202.60 438.83 199.30 439.86 195.84 C 437.22 198.44 435.34 201.64 433.66 204.91 Z" />
<path fill="#0b0b0b" d=" M 173.79 199.54 C 177.25 197.57 181.40 197.50 185.26 197.73 C 183.27 201.13 180.93 204.68 177.18 206.33 C 174.56 207.67 171.56 207.56 168.69 207.61 C 172.12 206.08 175.48 204.29 178.02 201.46 C 174.36 202.31 170.96 203.95 167.76 205.88 C 169.52 203.57 171.19 201.01 173.79 199.54 Z" />
<path fill="#0b0b0b" d=" M 248.37 198.00 C 251.74 198.00 255.12 198.00 258.50 198.00 C 258.51 201.92 258.53 205.84 258.48 209.77 C 261.16 208.56 264.22 207.25 267.15 208.50 C 276.52 211.31 276.06 227.53 266.50 229.70 C 263.89 230.54 261.23 229.62 258.83 228.60 C 256.06 231.27 251.81 229.53 248.37 229.99 C 248.37 227.89 248.37 225.79 248.38 223.70 C 248.85 223.69 249.78 223.68 250.25 223.67 C 250.15 217.06 250.42 210.44 250.13 203.84 C 249.70 203.55 248.84 202.99 248.41 202.71 C 248.38 201.13 248.37 199.57 248.37 198.00 Z" />
<path fill="#0b0b0b" d=" M 341.50 200.66 C 343.00 199.02 345.22 197.09 347.58 198.35 C 351.00 199.57 351.63 204.89 348.16 206.46 C 345.69 207.98 343.17 206.18 341.51 204.38 C 341.51 203.45 341.50 201.59 341.50 200.66 Z" />
<path fill="#0b0b0b" d=" M 414.67 197.72 C 418.33 197.50 422.21 197.58 425.58 199.23 C 428.48 200.64 430.32 203.44 432.26 205.90 C 429.04 203.97 425.63 202.32 421.96 201.46 C 424.47 204.32 427.86 206.08 431.28 207.61 C 428.42 207.56 425.43 207.68 422.81 206.35 C 419.02 204.72 416.66 201.16 414.67 197.72 Z" />
<path fill="#0b0b0b" d=" M 196.84 202.97 C 201.46 198.76 209.21 199.14 213.60 203.51 C 213.82 202.34 214.06 201.17 214.30 200.00 C 216.61 200.00 218.92 200.00 221.24 200.00 C 221.24 203.67 221.24 207.33 221.24 211.00 C 218.86 211.00 216.48 211.00 214.10 211.00 C 212.96 206.80 208.25 206.42 204.70 207.45 C 205.04 208.33 205.45 209.18 205.93 209.99 C 210.31 212.46 215.77 212.77 219.64 216.18 C 223.33 219.31 222.39 226.12 217.99 228.17 C 212.77 231.17 206.14 230.26 201.48 226.62 C 201.38 227.74 201.28 228.87 201.19 230.00 C 198.71 230.00 196.23 230.00 193.76 230.00 C 193.76 226.33 193.76 222.67 193.76 219.00 C 196.21 219.00 198.66 219.00 201.12 219.00 C 201.98 221.02 203.44 223.01 205.88 222.96 C 207.69 223.14 211.94 223.21 210.63 220.30 C 206.38 218.00 201.11 217.93 197.24 214.83 C 193.49 212.16 193.23 205.87 196.84 202.97 Z" />
<path fill="#0b0b0b" d=" M 326.46 204.10 C 329.05 203.28 331.65 202.46 334.24 201.64 C 334.24 203.75 334.24 205.87 334.24 207.99 C 335.57 207.99 336.90 208.00 338.24 208.00 C 338.24 210.00 338.24 212.00 338.24 214.00 C 336.90 214.00 335.57 214.00 334.23 214.01 C 334.24 217.35 334.18 220.69 334.39 224.02 C 335.69 223.87 336.99 223.70 338.29 223.51 C 338.25 225.36 338.24 227.22 338.22 229.08 C 334.78 229.99 330.59 230.80 327.72 228.10 C 325.48 223.82 326.83 218.73 326.52 214.10 C 325.95 214.06 324.80 213.97 324.23 213.93 C 324.24 211.98 324.24 210.03 324.22 208.08 C 324.80 208.03 325.96 207.93 326.54 207.88 C 326.51 206.62 326.48 205.36 326.46 204.10 Z" />
<path fill="#0b0b0b" d=" M 277.06 209.54 C 282.67 206.74 289.94 205.67 295.22 209.76 C 299.26 213.29 297.31 219.22 297.73 223.89 C 298.39 223.92 299.72 224.00 300.38 224.03 C 300.37 226.02 300.37 228.01 300.37 230.00 C 297.47 230.00 294.57 229.99 291.67 230.01 C 291.39 229.54 290.84 228.58 290.56 228.10 C 286.71 230.30 281.57 230.86 278.08 227.66 C 274.12 223.65 276.74 215.96 282.05 214.54 C 284.72 213.22 287.47 214.74 290.07 215.48 C 287.98 211.23 282.42 213.44 278.74 213.59 C 278.18 212.24 277.62 210.89 277.06 209.54 Z" />
<path fill="#0b0b0b" d=" M 355.07 209.52 C 360.69 206.74 367.97 205.67 373.24 209.78 C 377.26 213.31 375.31 219.22 375.73 223.89 C 376.39 223.92 377.72 224.00 378.38 224.03 C 378.37 226.02 378.37 228.00 378.37 229.99 C 375.02 229.44 370.48 231.52 368.20 228.20 C 364.35 230.61 358.91 230.68 355.66 227.23 C 352.34 223.04 354.90 215.99 359.99 214.56 C 362.67 213.21 365.43 214.71 368.02 215.52 C 366.06 211.16 360.38 213.48 356.73 213.59 C 356.17 212.23 355.62 210.88 355.07 209.52 Z" />
<path fill="#0b0b0b" d=" M 226.43 211.50 C 231.06 206.77 239.87 206.75 244.11 212.01 C 246.20 214.42 245.80 217.87 245.56 220.82 C 240.81 221.31 236.00 220.71 231.24 221.23 C 233.71 225.19 238.93 224.34 242.52 222.55 C 243.66 223.80 244.80 225.05 245.94 226.31 C 241.15 229.86 234.31 231.44 228.88 228.39 C 222.97 225.21 221.91 216.28 226.43 211.50 Z" />
<path fill="#0b0b0b" d=" M 305.14 209.33 C 308.74 206.93 313.31 208.14 316.42 210.76 C 316.46 210.06 316.55 208.68 316.59 207.99 C 318.26 207.99 319.94 208.00 321.63 208.00 C 321.62 210.67 321.62 213.33 321.63 216.00 C 320.06 216.00 318.49 216.00 316.93 216.00 C 315.39 213.73 312.86 212.27 310.08 213.22 C 310.13 213.66 310.23 214.55 310.28 214.99 C 313.85 216.87 318.03 217.50 321.29 220.02 C 321.91 222.27 322.86 224.81 321.21 226.88 C 317.86 231.09 311.38 230.70 307.52 227.40 C 307.46 228.05 307.33 229.35 307.27 230.00 C 305.59 230.00 303.92 230.00 302.25 230.00 C 302.24 227.33 302.24 224.66 302.25 221.99 C 303.79 221.99 305.34 222.00 306.89 222.01 C 309.09 224.16 312.18 224.28 315.05 223.71 C 311.92 221.00 307.19 221.52 304.20 218.60 C 301.47 216.17 301.58 210.93 305.14 209.33 Z" />
<path fill="#0b0b0b" d=" M 340.39 208.00 C 343.51 208.00 346.63 208.00 349.76 208.00 C 349.74 213.16 349.78 218.31 349.73 223.47 C 353.33 223.76 351.90 227.50 352.20 229.91 C 348.26 230.07 344.32 229.98 340.39 230.00 C 340.37 228.09 340.36 226.19 340.32 224.28 C 340.80 224.09 341.74 223.69 342.22 223.49 C 341.80 220.18 341.78 216.84 341.85 213.51 C 341.47 213.51 340.73 213.52 340.35 213.52 C 340.37 211.68 340.37 209.84 340.39 208.00 Z" />
<path fill="#0b0b0b" d=" M 380.58 214.69 C 380.62 212.46 380.63 210.23 380.64 208.00 C 383.48 208.02 386.33 207.90 389.18 208.05 C 389.65 209.01 390.09 210.00 390.50 211.00 C 393.57 207.99 398.65 206.73 402.10 209.85 C 405.57 213.69 404.08 219.24 404.34 223.92 C 404.85 223.95 405.87 224.01 406.38 224.04 C 406.37 226.02 406.37 228.01 406.37 230.00 C 402.83 230.00 399.29 230.00 395.76 230.00 C 395.70 225.11 395.95 220.20 395.52 215.33 C 393.95 215.32 391.89 214.35 390.91 216.09 C 389.98 218.58 390.49 221.36 390.34 223.97 C 391.13 223.98 392.72 224.00 393.51 224.01 C 393.51 226.01 393.51 228.00 393.51 230.00 C 389.21 230.00 384.92 230.00 380.63 230.00 C 380.62 228.00 380.62 226.01 380.63 224.01 L 382.39 223.92 C 382.37 220.89 382.37 217.87 382.38 214.85 C 381.93 214.81 381.03 214.73 380.58 214.69 Z" />
<path fill="#ffffff" d=" M 231.33 216.78 C 232.59 215.36 233.82 213.32 236.06 214.00 C 237.81 213.71 238.36 215.72 239.22 216.78 C 236.60 217.05 233.95 217.03 231.33 216.78 Z" />
<path fill="#ffffff" d=" M 260.12 214.28 C 265.38 212.63 266.10 221.19 263.02 223.83 C 257.80 225.24 256.89 216.80 260.12 214.28 Z" />
<path fill="#0b0b0b" d=" M 147.09 219.34 C 151.22 220.97 155.77 222.76 158.19 226.75 C 159.66 228.84 159.89 231.45 160.36 233.89 C 158.14 230.82 155.53 228.04 152.44 225.81 C 153.90 229.52 156.39 232.65 159.18 235.44 C 151.79 233.75 147.27 226.65 147.09 219.34 Z" />
<path fill="#ffffff" d=" M 284.10 223.80 C 284.42 222.42 283.76 220.08 285.86 220.05 C 288.44 219.15 289.72 221.52 289.62 223.70 C 287.78 223.86 285.94 223.91 284.10 223.80 Z" />
<path fill="#ffffff" d=" M 362.07 223.77 C 362.43 222.41 361.79 220.00 363.90 220.05 C 366.47 219.13 367.68 221.56 367.63 223.69 C 365.77 223.87 363.92 223.91 362.07 223.77 Z" />
<path fill="#0b0b0b" d=" M 442.63 225.54 C 445.16 222.26 449.21 220.86 452.89 219.32 C 452.63 226.45 448.36 233.81 440.93 235.23 C 443.70 232.54 446.07 229.43 447.50 225.82 C 444.35 228.07 441.78 230.99 439.36 233.98 C 439.90 231.00 440.62 227.91 442.63 225.54 Z" />
<path fill="#0b0b0b" d=" M 162.60 234.15 C 163.92 226.73 171.29 222.76 178.25 222.27 C 176.97 226.19 175.28 230.28 171.86 232.81 C 169.54 234.70 166.54 235.25 163.68 235.77 C 166.74 233.50 169.63 230.96 171.76 227.77 C 168.24 229.16 165.26 231.51 162.60 234.15 Z" />
<path fill="#0b0b0b" d=" M 421.70 222.27 C 428.69 222.77 436.04 226.76 437.39 234.19 C 434.72 231.54 431.73 229.15 428.18 227.81 C 430.36 230.99 433.31 233.50 436.30 235.90 C 433.25 235.22 430.03 234.56 427.61 232.44 C 424.49 229.87 422.92 226.01 421.70 222.27 Z" />
<path fill="#0b0b0b" d=" M 166.95 252.97 C 169.33 250.43 172.66 249.17 175.81 247.91 C 175.91 255.22 171.34 262.41 164.04 264.19 C 166.97 261.42 169.25 258.07 170.82 254.36 C 167.59 256.79 164.78 259.76 162.70 263.25 C 163.26 259.56 164.06 255.59 166.95 252.97 Z" />
<path fill="#0b0b0b" d=" M 144.91 251.51 C 151.63 251.92 159.06 255.42 160.51 262.64 C 157.75 260.26 154.77 258.09 151.31 256.85 C 153.70 260.14 156.82 262.75 160.23 264.91 C 152.69 264.51 146.32 258.91 144.91 251.51 Z" />
<path fill="#0b0b0b" d=" M 165.44 272.52 C 166.84 266.90 171.55 263.08 176.60 260.75 C 176.63 264.85 176.31 269.26 173.80 272.68 C 172.16 275.17 169.51 276.65 167.00 278.12 C 169.12 274.93 171.11 271.62 172.20 267.92 C 169.97 269.82 167.95 272.01 166.82 274.76 C 166.36 274.01 165.90 273.27 165.44 272.52 Z" />
<path fill="#0b0b0b" d=" M 423.31 260.75 C 427.76 262.91 432.42 265.98 433.92 270.98 C 434.88 272.34 433.68 273.63 433.31 274.91 C 432.07 272.12 430.03 269.85 427.74 267.90 C 428.87 271.60 430.86 274.94 432.92 278.20 C 426.02 275.32 422.62 267.92 423.31 260.75 Z" />
<path fill="#0b0b0b" d=" M 162.14 264.14 C 162.31 264.17 162.64 264.22 162.81 264.24 C 163.08 267.08 163.35 269.94 164.19 272.69 C 163.86 273.50 163.50 274.31 163.12 275.12 C 162.85 271.49 161.24 267.76 162.14 264.14 Z" />
<path fill="#0b0b0b" d=" M 226.25 265.00 C 234.67 265.00 243.09 265.00 251.51 265.00 C 251.51 268.33 251.51 271.66 251.51 275.00 C 249.08 275.00 246.65 275.00 244.23 275.00 C 244.24 273.69 244.26 272.38 244.28 271.07 C 242.02 271.01 239.76 271.00 237.50 271.00 C 237.51 273.33 237.51 275.67 237.53 278.00 C 240.19 278.00 242.85 278.00 245.51 278.00 C 245.51 280.00 245.51 282.00 245.51 284.00 C 242.84 283.99 240.17 284.00 237.50 284.03 C 237.50 285.67 237.50 287.31 237.50 288.95 C 238.87 288.97 240.25 288.99 241.63 289.02 C 241.62 291.01 241.62 293.00 241.63 295.00 C 236.50 295.00 231.37 295.00 226.25 295.00 C 226.24 293.02 226.24 291.03 226.23 289.06 C 226.83 289.02 228.05 288.95 228.66 288.92 C 228.61 282.97 228.61 277.02 228.65 271.07 C 228.05 271.04 226.83 270.98 226.23 270.95 C 226.24 268.96 226.24 266.98 226.25 265.00 Z" />
<path fill="#0b0b0b" d=" M 146.06 267.58 C 149.99 267.86 154.19 267.99 157.59 270.26 C 159.76 271.48 161.00 273.71 162.51 275.60 C 163.65 275.67 164.79 275.67 165.93 275.61 C 164.58 277.23 165.54 279.17 165.87 280.90 C 166.73 284.12 167.78 287.28 168.66 290.50 C 169.05 287.22 169.02 283.69 170.82 280.78 C 172.63 277.62 175.67 275.47 178.72 273.60 C 180.17 280.52 177.59 288.31 171.00 291.59 C 172.84 288.25 174.61 284.77 174.94 280.91 C 172.94 283.46 171.31 286.26 169.58 289.00 C 169.48 290.12 168.90 291.32 169.42 292.43 C 170.78 296.18 172.28 299.89 173.90 303.54 C 173.99 300.71 173.63 297.77 174.63 295.06 C 175.93 291.19 179.07 288.38 182.24 286.00 C 183.01 290.24 183.53 294.91 181.56 298.91 C 180.36 301.42 178.09 303.15 176.07 304.97 C 177.84 301.49 179.02 297.74 179.36 293.85 C 176.96 296.84 175.47 300.39 174.15 303.96 C 176.16 308.17 178.07 312.44 180.64 316.36 C 178.46 309.44 181.49 302.28 186.99 297.95 C 188.35 302.16 189.29 306.92 187.49 311.15 C 186.60 313.53 184.78 315.38 183.13 317.26 C 184.08 313.47 185.10 309.65 184.92 305.70 C 182.81 309.24 181.67 313.23 181.12 317.29 C 183.22 320.90 185.63 324.33 188.07 327.72 C 186.58 322.51 187.00 316.70 190.47 312.36 C 191.28 311.63 191.83 309.37 193.21 310.38 C 196.56 316.34 195.71 323.90 191.23 329.03 C 191.59 325.25 192.19 321.43 191.52 317.64 C 190.17 320.87 189.74 324.40 188.33 327.61 C 190.61 331.96 194.31 335.31 197.26 339.19 C 196.59 336.50 195.38 333.88 195.50 331.06 C 195.54 326.95 197.79 323.36 200.00 320.07 C 201.80 323.43 203.46 327.04 203.47 330.94 C 203.42 334.21 201.78 337.14 200.32 339.97 C 200.52 336.09 200.61 332.16 199.37 328.43 C 198.51 331.96 198.09 335.58 197.50 339.17 C 200.03 342.05 202.66 344.85 205.41 347.54 C 206.25 347.49 207.09 347.45 207.93 347.43 L 207.34 349.02 C 214.41 355.60 222.30 361.34 230.71 366.08 C 225.55 361.17 224.73 353.58 227.35 347.19 C 229.92 349.78 232.71 352.45 233.74 356.08 C 235.00 359.37 234.20 362.90 233.84 366.28 C 232.64 362.44 231.49 358.57 229.48 355.07 C 229.28 359.05 230.31 362.92 231.60 366.64 C 233.39 367.61 235.10 368.77 236.46 370.31 C 234.47 370.06 232.65 369.22 231.09 368.00 C 227.65 368.82 224.16 369.70 221.04 371.43 C 221.19 371.63 221.49 372.04 221.63 372.25 C 224.96 372.08 228.17 371.11 231.35 370.18 C 226.67 376.13 218.40 377.11 211.76 374.29 C 215.57 370.10 220.79 366.34 226.79 367.34 C 227.37 366.97 227.95 366.60 228.53 366.23 C 226.13 365.52 224.15 363.98 222.10 362.63 C 212.92 356.56 204.61 349.25 197.09 341.22 C 193.02 340.33 188.82 340.72 184.81 341.73 C 188.60 342.75 192.51 343.09 196.42 343.36 C 193.75 344.53 191.01 345.87 188.01 345.65 C 183.83 345.72 180.14 343.40 176.81 341.14 C 180.06 339.54 183.41 337.92 187.08 337.67 C 190.33 337.56 193.24 339.28 196.16 340.43 C 193.36 336.79 190.28 333.37 187.59 329.66 C 183.71 329.24 179.80 328.99 175.91 329.34 C 179.45 330.77 183.21 331.58 187.02 331.94 C 184.73 332.74 182.44 333.75 179.96 333.63 C 175.19 333.84 171.14 330.86 167.67 327.95 C 171.75 326.20 176.24 324.71 180.69 325.91 C 183.05 326.74 185.11 328.17 187.31 329.33 C 181.79 321.55 176.56 313.41 173.05 304.50 C 172.67 304.20 171.90 303.58 171.51 303.28 L 171.81 304.82 C 168.75 302.99 165.27 302.05 161.72 302.01 C 164.88 304.33 168.56 305.72 172.29 306.84 C 165.03 309.06 157.61 305.04 153.77 298.88 C 159.32 297.68 166.40 297.49 170.22 302.48 C 170.60 301.97 170.98 301.46 171.37 300.95 C 169.98 297.86 168.66 294.73 167.89 291.43 C 167.40 291.98 166.92 292.54 166.46 293.12 L 166.70 291.88 C 164.16 294.28 160.69 293.27 157.85 292.23 C 153.89 290.58 151.25 287.01 149.08 283.48 C 155.13 282.72 161.97 283.74 165.81 289.00 L 165.09 289.31 C 162.15 289.42 159.57 287.62 156.71 287.11 C 159.02 289.42 161.74 291.30 164.79 292.49 C 165.02 292.19 165.48 291.59 165.70 291.29 C 165.75 290.98 165.85 290.36 165.90 290.05 L 166.58 289.87 L 167.11 289.51 C 165.76 285.32 164.45 281.10 163.71 276.74 C 159.90 275.58 156.70 272.97 152.83 271.90 C 155.55 274.85 158.80 277.22 162.30 279.17 C 158.48 278.87 154.35 278.40 151.51 275.52 C 149.03 273.39 147.51 270.45 146.06 267.58 Z" />
<path fill="#0b0b0b" d=" M 254.21 274.53 C 259.96 271.67 267.53 270.64 272.76 275.07 C 276.13 278.81 274.92 284.37 275.14 288.97 C 275.74 288.98 276.92 289.00 277.52 289.02 C 277.51 291.01 277.51 293.00 277.51 295.00 C 274.56 295.00 271.60 295.00 268.65 295.00 C 268.47 294.52 268.12 293.56 267.94 293.08 C 265.28 294.10 262.47 295.63 259.55 294.76 C 256.34 294.18 253.06 291.56 253.36 288.01 C 253.06 283.78 256.40 279.89 260.50 279.15 C 262.67 278.47 264.68 279.80 266.63 280.55 C 266.54 280.01 266.36 278.93 266.27 278.39 C 262.83 277.77 259.32 277.98 255.89 278.58 C 255.33 277.23 254.77 275.87 254.21 274.53 Z" />
<path fill="#0b0b0b" d=" M 288.98 275.85 C 290.41 273.51 292.77 272.13 295.47 271.67 C 295.51 274.36 295.51 277.05 295.56 279.74 C 293.63 280.20 291.15 280.09 289.93 281.98 C 289.10 284.17 289.46 286.60 289.29 288.90 C 289.85 288.93 290.96 289.01 291.52 289.05 C 291.51 291.03 291.51 293.01 291.51 295.00 C 287.55 295.00 283.59 295.00 279.63 295.00 C 279.62 293.01 279.62 291.02 279.62 289.03 C 280.13 289.01 281.15 288.95 281.66 288.93 C 281.61 285.54 281.62 282.15 281.63 278.76 C 281.16 278.76 280.21 278.75 279.74 278.75 C 279.75 276.83 279.76 274.92 279.76 273.00 C 283.00 273.38 287.95 271.42 288.98 275.85 Z" />
<path fill="#0b0b0b" d=" M 298.06 274.54 C 303.66 271.75 310.89 270.68 316.18 274.73 C 320.27 278.24 318.31 284.20 318.73 288.89 C 319.39 288.92 320.72 289.00 321.38 289.03 C 321.37 291.02 321.37 293.01 321.37 295.00 C 318.48 295.00 315.60 294.99 312.72 295.01 C 312.28 294.37 311.85 293.73 311.42 293.09 C 307.52 295.57 301.94 295.77 298.64 292.20 C 295.35 287.99 297.94 280.94 303.05 279.54 C 305.71 278.21 308.45 279.72 311.02 280.51 C 309.04 276.18 303.39 278.47 299.74 278.59 C 299.18 277.24 298.62 275.89 298.06 274.54 Z" />
<path fill="#0b0b0b" d=" M 325.39 276.32 C 328.45 272.82 333.65 272.36 337.82 273.91 C 341.35 272.23 345.40 273.19 349.16 273.09 C 349.16 274.98 349.16 276.88 349.18 278.77 C 348.50 278.87 347.15 279.05 346.47 279.15 C 346.47 284.10 346.67 289.06 346.39 294.01 C 346.01 298.69 342.26 302.71 337.63 303.47 C 332.68 304.99 327.44 303.22 323.45 300.19 C 324.19 298.59 324.93 296.98 325.65 295.37 C 328.66 297.28 332.32 298.86 335.92 297.63 C 338.02 296.88 338.19 294.35 338.71 292.53 C 336.46 293.76 334.14 295.68 331.40 294.87 C 326.94 294.39 323.38 290.42 323.19 285.99 C 323.01 282.68 322.90 278.87 325.39 276.32 Z" />
<path fill="#0b0b0b" d=" M 358.41 273.65 C 365.80 270.78 375.26 276.80 374.13 285.11 C 373.76 292.87 364.49 296.99 357.83 294.12 C 352.05 292.49 349.04 285.50 351.34 280.07 C 352.40 276.87 355.30 274.65 358.41 273.65 Z" />
<path fill="#0b0b0b" d=" M 421.13 273.37 C 424.33 275.60 427.78 277.88 429.53 281.52 C 431.15 284.30 430.68 287.65 431.05 290.71 C 432.29 286.62 433.84 282.61 434.59 278.38 C 434.77 276.99 435.38 275.72 436.38 274.74 C 436.03 280.35 433.97 285.63 432.44 290.99 C 433.22 291.57 434.02 292.16 434.81 292.75 C 437.90 291.28 440.89 289.53 443.33 287.10 C 439.79 287.92 436.43 289.34 433.12 290.81 C 436.32 284.16 444.23 282.52 450.90 283.48 C 447.76 289.41 441.73 294.16 434.72 293.39 C 433.95 292.60 433.19 291.81 432.43 291.02 C 431.30 294.37 430.02 297.68 428.63 300.93 C 429.00 301.42 429.39 301.91 429.78 302.41 C 433.64 297.49 440.63 297.70 446.18 298.87 C 443.68 302.23 440.67 305.51 436.53 306.73 C 433.66 307.85 430.54 307.27 427.61 306.80 C 431.39 305.79 435.06 304.31 438.25 302.01 C 434.13 301.98 430.31 303.57 426.62 305.20 C 425.00 309.46 422.75 313.43 420.54 317.41 C 422.90 315.69 425.12 313.52 428.04 312.80 C 432.04 311.58 436.18 312.75 440.08 313.77 C 437.51 316.41 434.70 319.01 431.13 320.19 C 427.75 321.28 424.15 320.57 420.79 319.77 C 424.74 319.15 428.57 317.88 432.01 315.81 C 428.00 315.78 424.11 316.76 420.23 317.62 C 413.67 328.89 405.54 339.37 395.81 348.10 C 396.13 348.59 396.46 349.08 396.79 349.58 C 402.33 347.66 408.35 349.96 412.51 353.75 C 408.86 355.39 405.02 357.21 400.90 356.72 C 397.82 356.60 395.24 354.83 392.70 353.29 C 396.51 353.81 400.39 353.95 404.15 353.02 C 401.09 351.93 397.89 351.12 394.61 351.50 C 394.98 350.44 395.33 349.38 395.69 348.32 C 392.06 352.04 387.96 355.22 383.85 358.37 L 383.84 359.13 C 383.99 359.56 384.30 360.42 384.45 360.86 C 379.33 358.90 376.24 365.36 371.48 366.24 C 372.05 366.60 372.64 366.96 373.23 367.32 C 379.20 366.39 384.42 370.09 388.18 374.31 C 381.53 377.10 373.30 376.11 368.60 370.19 C 372.17 371.34 375.89 372.23 379.67 372.19 C 376.55 369.77 372.64 368.89 368.88 368.01 C 367.28 369.21 365.46 370.09 363.46 370.36 C 365.05 368.58 367.08 367.30 369.10 366.07 C 377.25 361.75 384.65 356.08 391.61 350.05 C 391.94 346.20 391.98 342.32 391.51 338.48 C 389.81 342.12 389.87 346.20 389.59 350.12 C 387.28 345.44 386.15 339.78 388.86 334.99 C 389.86 333.64 390.33 330.15 392.59 331.41 C 394.16 334.69 395.67 338.32 395.23 342.04 C 394.79 344.77 393.28 347.16 392.05 349.59 C 395.96 346.54 399.10 342.68 402.57 339.17 C 401.91 335.57 401.40 331.94 400.44 328.40 C 399.37 332.19 399.42 336.14 399.61 340.05 C 395.23 334.00 396.00 326.09 399.95 320.10 C 402.14 323.36 404.39 326.91 404.44 330.98 C 404.63 333.80 403.37 336.44 402.76 339.14 C 405.62 335.50 408.86 332.13 411.46 328.29 C 410.84 324.65 409.64 321.05 408.40 317.57 C 408.08 321.42 408.28 325.30 408.74 329.14 C 406.96 326.04 404.42 322.91 404.65 319.12 C 404.33 315.68 405.84 312.53 407.05 309.42 C 411.84 314.16 414.26 321.21 411.81 327.78 C 414.19 324.21 417.11 320.88 418.81 316.90 C 418.45 313.02 416.86 309.40 415.33 305.87 C 415.01 309.80 415.73 313.69 416.97 317.41 C 414.21 314.54 411.64 311.09 411.47 306.96 C 411.18 303.84 412.20 300.83 412.94 297.85 C 415.58 300.34 418.12 303.15 419.29 306.65 C 420.47 309.97 419.62 313.55 419.17 316.91 C 423.65 308.64 428.11 300.26 430.82 291.22 C 429.69 287.36 427.46 283.95 424.93 280.86 C 425.45 284.71 427.06 288.25 428.94 291.60 C 422.30 288.25 419.77 280.34 421.13 273.37 Z" />
<path fill="#ffffff" d=" M 333.33 279.51 C 339.48 276.44 340.42 290.21 334.02 288.95 C 331.23 286.81 330.81 281.99 333.33 279.51 Z" />
<path fill="#ffffff" d=" M 360.99 279.18 C 366.60 277.85 366.37 286.01 364.12 289.13 C 358.64 290.04 357.68 282.02 360.99 279.18 Z" />
<path fill="#ffffff" d=" M 261.10 288.68 C 261.25 286.92 261.42 284.56 263.88 284.99 C 266.35 284.53 266.61 287.00 266.66 288.78 C 264.80 288.90 262.94 288.89 261.10 288.68 Z" />
<path fill="#ffffff" d=" M 305.05 288.76 C 305.42 287.38 304.81 284.97 306.94 285.05 C 309.50 284.17 310.70 286.57 310.63 288.69 C 308.77 288.87 306.91 288.91 305.05 288.76 Z" />
<path fill="#0b0b0b" d=" M 417.71 285.87 C 420.06 287.92 422.59 289.93 424.23 292.64 C 425.78 295.25 426.07 298.33 426.50 301.27 C 426.02 301.28 425.07 301.31 424.59 301.32 C 423.74 298.61 422.34 296.14 420.66 293.87 C 420.97 297.77 422.14 301.51 423.86 305.01 C 421.36 302.72 418.55 300.41 417.63 296.99 C 416.34 293.38 417.09 289.53 417.71 285.87 Z" />
<path fill="#0b0b0b" d=" M 159.87 313.79 C 164.04 312.62 168.60 311.46 172.81 313.10 C 175.47 313.96 177.46 316.00 179.48 317.82 C 175.77 316.54 171.88 315.84 167.96 315.81 C 171.39 317.87 175.23 319.19 179.19 319.78 C 175.91 320.56 172.45 321.20 169.13 320.30 C 165.43 319.18 162.53 316.47 159.87 313.79 Z" />
<path fill="#0b0b0b" d=" M 414.04 328.21 C 419.58 324.48 426.56 325.03 432.30 327.95 C 428.82 330.85 424.77 333.83 420.01 333.64 C 417.53 333.76 415.24 332.76 412.97 331.95 C 416.75 331.57 420.50 330.77 424.04 329.35 C 420.70 328.90 417.10 329.92 414.04 328.21 Z" />
<path fill="#0b0b0b" d=" M 206.02 346.83 C 203.48 341.27 205.06 335.13 208.07 330.13 C 210.58 333.57 212.92 337.56 212.70 341.97 C 212.71 344.84 211.36 347.46 210.40 350.10 C 210.15 346.11 209.94 342.06 208.58 338.26 C 208.22 340.46 207.86 342.67 207.70 344.90 C 207.14 345.54 206.58 346.18 206.02 346.83 Z" />
<path fill="#0b0b0b" d=" M 403.68 340.63 C 406.32 339.33 409.03 337.86 412.04 337.67 C 416.01 337.65 419.66 339.44 423.16 341.14 C 419.83 343.40 416.14 345.70 411.97 345.65 C 408.93 345.88 406.16 344.48 403.44 343.37 C 407.38 343.12 411.35 342.75 415.18 341.72 C 411.42 340.81 407.54 340.54 403.68 340.63 Z" />
<path fill="#0b0b0b" d=" M 217.15 339.32 C 219.87 341.91 222.14 345.16 222.85 348.91 C 223.67 352.14 222.53 355.39 221.61 358.48 C 220.88 354.94 220.70 351.16 218.63 348.07 C 218.18 351.55 218.64 355.05 219.32 358.47 C 213.84 353.54 214.21 345.49 217.15 339.32 Z" />
<path fill="#0b0b0b" d=" M 377.06 349.08 C 377.78 345.22 380.18 341.97 382.76 339.12 C 385.57 345.38 386.20 353.57 380.57 358.53 C 381.32 354.92 381.94 351.23 381.30 347.55 C 379.57 351.00 378.97 354.84 378.38 358.62 C 377.48 355.54 376.30 352.32 377.06 349.08 Z" />
<path fill="#0b0b0b" d=" M 368.58 351.56 C 369.81 350.25 370.87 348.10 372.88 348.06 C 375.07 354.17 374.41 361.96 368.72 365.99 C 369.72 362.61 370.56 359.15 370.41 355.59 C 368.18 358.75 367.18 362.53 366.64 366.32 C 364.68 361.45 365.17 355.67 368.58 351.56 Z" />
<path fill="#0b0b0b" d=" M 187.41 353.72 C 192.61 348.80 200.86 347.18 207.04 351.31 C 203.23 351.24 199.40 351.57 195.86 353.05 C 199.62 353.94 203.48 353.82 207.27 353.28 C 204.73 354.82 202.14 356.60 199.05 356.72 C 194.92 357.22 191.06 355.39 187.41 353.72 Z" />
<path fill="#0b0b0b" d=" M 198.95 364.65 C 202.04 361.90 205.61 359.29 209.84 358.78 C 212.72 358.37 215.51 359.39 218.20 360.28 C 214.31 360.75 210.47 361.68 206.90 363.33 C 210.93 363.85 214.95 363.30 218.86 362.32 C 215.99 364.52 212.82 366.94 209.00 366.80 C 205.50 367.09 202.17 365.83 198.95 364.65 Z" />
<path fill="#0b0b0b" d=" M 386.04 360.16 C 386.88 358.13 389.41 358.65 391.12 358.96 C 394.95 359.69 398.05 362.20 401.07 364.50 C 397.04 366.32 392.53 367.51 388.12 366.45 C 385.44 365.72 383.26 363.92 381.07 362.30 C 384.99 363.34 389.05 363.86 393.10 363.30 C 390.86 362.43 388.58 361.69 386.27 361.03 C 386.21 360.81 386.10 360.38 386.04 360.16 Z" />
<path fill="#0b0b0b" d=" M 250.24 369.71 C 251.17 370.77 252.07 371.89 253.15 372.84 C 254.68 372.81 256.21 372.71 257.74 372.55 C 256.92 373.72 256.11 374.91 255.31 376.10 C 255.97 377.39 256.64 378.69 257.33 379.98 C 255.85 379.72 254.37 379.47 252.89 379.23 C 251.96 380.17 251.04 381.12 250.12 382.07 C 249.84 380.65 249.61 379.22 249.38 377.81 C 248.13 377.17 246.88 376.52 245.64 375.89 C 246.96 375.32 248.28 374.74 249.61 374.19 C 249.82 372.69 250.03 371.19 250.24 369.71 Z" />
<path fill="#0b0b0b" d=" M 346.88 373.07 C 347.74 371.93 348.60 370.79 349.46 369.65 C 349.79 371.17 350.14 372.69 350.49 374.21 C 351.72 374.74 352.97 375.29 354.21 375.84 C 352.99 376.52 351.78 377.19 350.57 377.87 C 350.39 379.23 350.22 380.61 350.05 381.98 C 348.23 379.55 345.69 378.89 342.85 379.88 C 343.44 378.61 344.09 377.35 344.53 376.02 C 343.88 374.75 343.09 373.56 342.33 372.37 C 343.84 372.61 345.36 372.83 346.88 373.07 Z" />
<path fill="#0b0b0b" d=" M 323.53 379.26 C 324.77 378.40 326.02 377.54 327.28 376.71 C 327.29 378.16 327.29 379.62 327.30 381.08 C 328.46 381.81 329.63 382.56 330.80 383.30 C 329.39 383.72 328.00 384.17 326.61 384.61 C 326.21 386.04 325.82 387.47 325.44 388.91 C 324.57 387.67 323.68 386.44 322.80 385.22 C 321.31 385.31 319.83 385.41 318.35 385.54 C 319.26 384.38 320.15 383.21 321.03 382.04 C 320.64 380.68 320.24 379.33 319.85 377.99 C 321.08 378.40 322.30 378.82 323.53 379.26 Z" />
<path fill="#0b0b0b" d=" M 272.77 376.93 C 275.00 378.75 277.68 379.42 280.42 378.15 C 280.03 379.09 279.26 380.96 278.88 381.89 C 279.74 383.08 280.61 384.29 281.49 385.48 C 279.98 385.39 278.47 385.31 276.97 385.24 C 276.19 386.51 275.39 387.77 274.62 389.05 C 274.21 387.55 273.80 386.06 273.40 384.58 C 272.00 384.16 270.61 383.74 269.22 383.35 C 270.41 382.54 271.59 381.72 272.78 380.91 C 272.78 379.92 272.77 377.92 272.77 376.93 Z" />
<path fill="#0b0b0b" d=" M 296.30 379.05 C 297.53 379.85 298.76 380.65 299.99 381.46 C 301.24 380.65 302.48 379.85 303.73 379.05 C 303.54 380.59 303.34 382.13 303.14 383.67 C 304.18 384.60 305.23 385.54 306.28 386.48 C 304.76 386.70 303.24 386.95 301.73 387.21 C 301.16 388.52 300.59 389.83 300.02 391.15 C 299.42 389.83 298.82 388.51 298.25 387.20 C 296.73 386.94 295.21 386.70 293.69 386.48 C 294.72 385.55 295.75 384.61 296.79 383.68 C 296.63 382.13 296.46 380.59 296.30 379.05 Z" />
</svg>
